<svg width="50" height="50" viewBox="0 0 50 50" fill="currentColor" xmlns="http://www.w3.org/2000/svg">
<path d="M35.2595 22.3667C35.4245 22.2355 35.67 22.3582 35.67 22.5656V31.2209C35.67 32.3425 34.76 33.2525 33.6384 33.2525H16.0316C14.91 33.2525 14 32.3425 14 31.2209V22.5699C14 22.3582 14.2412 22.2397 14.4105 22.3709C15.3586 23.1074 16.6156 24.0427 20.9327 27.179C21.8257 27.8308 23.3325 29.2021 24.835 29.1936C26.346 29.2063 27.8823 27.8054 28.7415 27.179C33.0586 24.0427 34.3114 23.1032 35.2595 22.3667ZM24.835 27.835C25.8169 27.8519 27.2306 26.5991 27.9416 26.0828C33.558 22.007 33.9855 21.6514 35.2806 20.6356C35.5261 20.4452 35.67 20.1489 35.67 19.8357V19.0316C35.67 17.91 34.76 17 33.6384 17H16.0316C14.91 17 14 17.91 14 19.0316V19.8357C14 20.1489 14.1439 20.441 14.3894 20.6356C15.6845 21.6472 16.112 22.007 21.7284 26.0828C22.4394 26.5991 23.8531 27.8519 24.835 27.835Z" />
<circle cx="25" cy="25" r="24" fill="none" stroke-width="2" stroke="currentColor"/>
</svg>
