<svg width="50" height="50" viewBox="0 0 50 50" fill="currentColor" xmlns="http://www.w3.org/2000/svg">
<path d="M22.7428 28.4103C22.7428 29.3902 22.2308 30.9936 21.0187 30.9936C19.8066 30.9936 19.2946 29.3902 19.2946 28.4103C19.2946 27.4304 19.8066 25.827 21.0187 25.827C22.2308 25.827 22.7428 27.4304 22.7428 28.4103ZM36.55 26.0427C36.55 27.5383 36.3997 29.123 35.7279 30.4967C33.9474 34.088 29.0521 34.0036 25.5475 34.0036C21.9865 34.0036 16.8 34.1302 14.949 30.4967C14.2631 29.137 14 27.5383 14 26.0427C14 24.0782 14.653 22.2216 15.9496 20.7166C15.7053 19.9758 15.5879 19.1975 15.5879 18.4286C15.5879 17.4206 15.8181 16.9142 16.2738 16C18.4019 16 19.7643 16.422 21.3851 17.6878C22.7475 17.3643 24.1475 17.219 25.5522 17.219C26.8206 17.219 28.0984 17.355 29.3293 17.6503C30.9266 16.3985 32.289 16 34.3937 16C34.8541 16.9142 35.0796 17.4206 35.0796 18.4286C35.0796 19.1975 34.9574 19.9617 34.7178 20.6884C36.0097 22.2075 36.55 24.0782 36.55 26.0427ZM33.5292 28.4103C33.5292 26.3521 32.2749 24.5377 30.0763 24.5377C29.1884 24.5377 28.338 24.6971 27.4454 24.819C26.7454 24.9268 26.0455 24.969 25.3267 24.969C24.6126 24.969 23.9126 24.9268 23.2079 24.819C22.3294 24.6971 21.4697 24.5377 20.5771 24.5377C18.3785 24.5377 17.1241 26.3521 17.1241 28.4103C17.1241 32.5268 20.9012 33.1597 24.1898 33.1597H26.4542C29.7568 33.1597 33.5292 32.5315 33.5292 28.4103ZM29.6488 25.827C28.4367 25.827 27.9246 27.4304 27.9246 28.4103C27.9246 29.3902 28.4367 30.9936 29.6488 30.9936C30.8608 30.9936 31.3729 29.3902 31.3729 28.4103C31.3729 27.4304 30.8608 25.827 29.6488 25.827Z" />
<circle cx="25" cy="25" r="24" fill="none" stroke-width="2" stroke="currentColor"/>
</svg>
