<svg width="50" height="50" viewBox="0 0 50 50" fill="currentColor" xmlns="http://www.w3.org/2000/svg">
<path d="M24.5073 20.0156C21.5263 20.0156 19.1218 22.3724 19.1218 25.2942C19.1218 28.2161 21.5263 30.5728 24.5073 30.5728C27.4883 30.5728 29.8928 28.2161 29.8928 25.2942C29.8928 22.3724 27.4883 20.0156 24.5073 20.0156ZM24.5073 28.726C22.5809 28.726 21.0061 27.187 21.0061 25.2942C21.0061 23.4015 22.5763 21.8624 24.5073 21.8624C26.4384 21.8624 28.0086 23.4015 28.0086 25.2942C28.0086 27.187 26.4337 28.726 24.5073 28.726ZM31.3693 19.7997C31.3693 20.4842 30.8068 21.0309 30.1131 21.0309C29.4148 21.0309 28.857 20.4796 28.857 19.7997C28.857 19.1198 29.4194 18.5685 30.1131 18.5685C30.8068 18.5685 31.3693 19.1198 31.3693 19.7997ZM34.9362 21.0493C34.8565 19.4 34.4722 17.9391 33.2394 16.7354C32.0114 15.5318 30.5209 15.1551 28.8382 15.0724C27.104 14.9759 21.906 14.9759 20.1718 15.0724C18.4938 15.1505 17.0033 15.5272 15.7706 16.7308C14.5378 17.9345 14.1582 19.3954 14.0738 21.0447C13.9754 22.7445 13.9754 27.8394 14.0738 29.5392C14.1535 31.1885 14.5378 32.6494 15.7706 33.853C17.0033 35.0567 18.4891 35.4334 20.1718 35.5161C21.906 35.6126 27.104 35.6126 28.8382 35.5161C30.5209 35.438 32.0114 35.0613 33.2394 33.853C34.4675 32.6494 34.8518 31.1885 34.9362 29.5392C35.0346 27.8394 35.0346 22.7491 34.9362 21.0493ZM32.6957 31.363C32.3301 32.2635 31.6224 32.9572 30.699 33.3201C29.3163 33.8576 26.0353 33.7336 24.5073 33.7336C22.9793 33.7336 19.6937 33.853 18.3157 33.3201C17.397 32.9618 16.6892 32.2681 16.319 31.363C15.7706 30.0078 15.8971 26.7919 15.8971 25.2942C15.8971 23.7966 15.7752 20.5761 16.319 19.2254C16.6845 18.325 17.3923 17.6313 18.3157 17.2683C19.6984 16.7308 22.9793 16.8549 24.5073 16.8549C26.0353 16.8549 29.321 16.7354 30.699 17.2683C31.6177 17.6267 32.3255 18.3204 32.6957 19.2254C33.2441 20.5807 33.1176 23.7966 33.1176 25.2942C33.1176 26.7919 33.2441 30.0124 32.6957 31.363Z" />
<circle cx="25" cy="25" r="24" fill="none" stroke-width="2" stroke="currentColor"/>
</svg>
