<svg width="50" height="50" viewBox="0 0 50 50" fill="currentColor" xmlns="http://www.w3.org/2000/svg">
<path d="M20.3761 32.9568H16.3229V19.6327H20.3761V32.9568ZM18.3473 17.8151C17.0512 17.8151 16 16.7193 16 15.3962C16 14.7607 16.2473 14.1512 16.6875 13.7018C17.1277 13.2525 17.7248 13 18.3473 13C18.9699 13 19.5669 13.2525 20.0071 13.7018C20.4473 14.1512 20.6946 14.7607 20.6946 15.3962C20.6946 16.7193 19.6429 17.8151 18.3473 17.8151ZM35.5456 32.9568H31.5012V26.4707C31.5012 24.9249 31.4707 22.9426 29.3939 22.9426C27.2866 22.9426 26.9637 24.622 26.9637 26.3594V32.9568H22.9149V19.6327H26.8022V21.4502H26.859C27.4001 20.4034 28.7219 19.2986 30.6939 19.2986C34.7959 19.2986 35.55 22.0561 35.55 25.6377V32.9568H35.5456Z" />
<circle cx="25" cy="25" r="24" fill="none" stroke-width="2" stroke="currentColor"/>
</svg>
