<svg width="50" height="50" viewBox="0 0 50 50" fill="currentColor" xmlns="http://www.w3.org/2000/svg">
<path d="M35.1293 19.7668C35.1443 19.976 35.1443 20.1852 35.1443 20.3944C35.1443 26.775 30.2878 34.127 21.4117 34.127C18.6771 34.127 16.1368 33.3349 14 31.9603C14.3885 32.0051 14.7621 32.02 15.1655 32.02C17.4219 32.02 19.499 31.2579 21.1577 29.9579C19.0358 29.9131 17.2575 28.5234 16.6449 26.6107C16.9438 26.6555 17.2426 26.6854 17.5564 26.6854C17.9898 26.6854 18.4231 26.6256 18.8266 26.521C16.615 26.0727 14.9563 24.1301 14.9563 21.7841V21.7243C15.5988 22.083 16.346 22.3071 17.138 22.337C15.8379 21.4703 14.9862 19.9909 14.9862 18.3173C14.9862 17.4207 15.2252 16.5989 15.6437 15.8816C18.0196 18.8104 21.591 20.7231 25.5957 20.9323C25.521 20.5737 25.4761 20.2002 25.4761 19.8266C25.4761 17.1667 27.6279 15 30.3027 15C31.6924 15 32.9476 15.5828 33.8292 16.5242C34.92 16.315 35.966 15.9115 36.8925 15.3586C36.5339 16.4794 35.7718 17.4208 34.7706 18.0185C35.7419 17.9139 36.6833 17.6449 37.55 17.2713C36.8926 18.2277 36.0707 19.0794 35.1293 19.7668Z" />
<circle cx="25" cy="25" r="24" fill="none" stroke-width="2" stroke="currentColor"/>
</svg>
