<?xml version="1.0" encoding="UTF-8" standalone="no"?><!DOCTYPE svg PUBLIC "-//W3C//DTD SVG 1.1//EN" "http://www.w3.org/Graphics/SVG/1.1/DTD/svg11.dtd"><svg width="100%" height="100%" viewBox="0 0 187 74" version="1.1" xmlns="http://www.w3.org/2000/svg" xmlns:xlink="http://www.w3.org/1999/xlink" xml:space="preserve" xmlns:serif="http://www.serif.com/" style="fill-rule:evenodd;clip-rule:evenodd;stroke-linejoin:round;stroke-miterlimit:2;"><g><path d="M94.228,55.956c-3.957,0 -7.184,-3.222 -7.184,-7.181c0,-3.963 3.227,-7.188 7.184,-7.188c3.957,0 7.185,3.225 7.185,7.188c0,3.959 -3.228,7.181 -7.185,7.181Zm0,-17.457c-5.672,0 -10.272,4.602 -10.272,10.276c0,5.672 4.6,10.268 10.272,10.268c5.676,0 10.274,-4.596 10.274,-10.268c0,-5.674 -4.598,-10.276 -10.274,-10.276Zm34.918,18.905l0,-0.006l-14.319,-7.571c-0.056,1.121 -0.207,2.207 -0.431,3.264l13.31,7.039l0.006,-0.006c0.212,0.113 0.456,0.185 0.72,0.185c0.85,0 1.543,-0.696 1.543,-1.548c0,-0.591 -0.336,-1.095 -0.829,-1.357Zm-89.709,-54.015c3.83,0 6.943,3.113 6.943,6.948c0,3.833 -3.113,6.94 -6.943,6.94c-3.837,0 -6.941,-3.107 -6.941,-6.94c0,-3.835 3.104,-6.948 6.941,-6.948Zm0,16.979c5.527,0 10.025,-4.501 10.025,-10.031c0,-5.537 -4.498,-10.038 -10.025,-10.038c-5.534,0 -10.036,4.501 -10.036,10.038c0,5.53 4.502,10.031 10.036,10.031Zm21.334,34.796c-3.519,0 -6.39,-2.868 -6.39,-6.389c0,-3.528 2.871,-6.39 6.39,-6.39c3.519,0 6.392,2.862 6.392,6.39c0,3.521 -2.873,6.389 -6.392,6.389Zm0,-15.87c-5.234,0 -9.478,4.245 -9.478,9.481c0,5.229 4.244,9.474 9.478,9.474c5.233,0 9.481,-4.245 9.481,-9.474c0,-5.236 -4.248,-9.481 -9.481,-9.481Zm101.269,31.301c-7.238,0 -13.655,-3.555 -17.593,-9.007c-3.912,5.636 -10.426,9.322 -17.802,9.322c-6.947,0 -13.118,-3.269 -17.081,-8.35c-3.774,4.194 -9.246,6.838 -15.336,6.838c-7.497,0 -14.064,-4.005 -17.673,-10.001c-3.417,5.072 -9.208,8.399 -15.784,8.399c-7.005,0 -13.139,-3.791 -16.436,-9.44c-3.516,7.245 -10.942,12.239 -19.542,12.239c-11.984,0 -21.704,-9.72 -21.704,-21.715l10.89,0c0,5.976 4.847,10.814 10.814,10.814c5.975,0 10.817,-4.838 10.817,-10.814l0,-16.544l10.895,-7.719l0,11.565c3.49,-3.942 8.585,-6.435 14.266,-6.435c6.576,0 12.367,3.334 15.784,8.4c3.609,-5.989 10.176,-9.994 17.673,-9.994c6.303,0 11.942,2.833 15.722,7.286c3.982,-4.801 9.975,-7.858 16.695,-7.858c3.855,0 7.462,1.005 10.597,2.769l0,13.48l-11.588,-5.881l0,0.007c-0.213,-0.107 -0.445,-0.172 -0.694,-0.172c-0.855,0 -1.549,0.692 -1.549,1.549c0,0.599 0.347,1.113 0.851,1.367l-0.011,0.006l16.077,8.155l0,-42.262l10.897,7.72l0,14.691l4.692,0c3.651,0 6.599,2.952 6.599,6.596c0,3.643 -2.948,6.595 -6.599,6.595l-4.692,-0.006l0,6.685c0,5.976 4.849,10.814 10.815,10.814c5.976,0 10.815,-4.838 10.815,-10.814l10.898,0c0,11.995 -9.722,21.715 -21.713,21.715Zm7.728,-24.806l0,3.091c0,4.261 -3.47,7.724 -7.728,7.724c-4.259,0 -7.726,-3.463 -7.726,-7.724l0,-3.589l1.603,0c5.342,0 9.687,-4.347 9.687,-9.685c0,-5.347 -4.345,-9.686 -9.687,-9.686l-1.603,0l0,-13.192l-1.3,-0.928l-10.895,-7.72l-4.877,-3.454l0,26.252c-3.215,-1.53 -6.808,-2.386 -10.597,-2.386c-6.442,0 -12.322,2.476 -16.726,6.524c-4.181,-3.696 -9.676,-5.951 -15.691,-5.951c-7.094,0 -13.464,3.143 -17.817,8.095c-4.006,-4.013 -9.533,-6.501 -15.64,-6.501c-4.075,0 -7.891,1.111 -11.177,3.042l0,-11.056l-4.871,3.452l-10.896,7.723l-1.306,0.921l0,18.139c0,4.261 -3.461,7.724 -7.728,7.724c-4.259,0 -7.725,-3.463 -7.725,-7.724l0,-3.091l-17.068,0l0,3.091c0,13.68 11.124,24.798 24.793,24.798c8.077,0 15.252,-3.875 19.79,-9.863c4.038,4.346 9.798,7.071 16.188,7.071c6.107,0 11.634,-2.488 15.64,-6.495c4.353,4.953 10.723,8.093 17.817,8.093c5.766,0 11.051,-2.072 15.172,-5.512c4.461,4.35 10.541,7.028 17.245,7.028c7.005,0 13.33,-2.927 17.837,-7.618c4.491,4.504 10.709,7.296 17.558,7.296c13.671,0 24.801,-11.118 24.801,-24.798l0,-3.091l-17.073,0Z" style="fill:#231f20;fill-rule:nonzero;"/></g></svg>