<?xml version="1.0" encoding="UTF-8" standalone="no"?><!DOCTYPE svg PUBLIC "-//W3C//DTD SVG 1.1//EN" "http://www.w3.org/Graphics/SVG/1.1/DTD/svg11.dtd"><svg width="100%" height="100%" viewBox="0 0 600 124" version="1.1" xmlns="http://www.w3.org/2000/svg" xmlns:xlink="http://www.w3.org/1999/xlink" xml:space="preserve" xmlns:serif="http://www.serif.com/" style="fill-rule:evenodd;clip-rule:evenodd;stroke-linejoin:round;stroke-miterlimit:2;"><g><g><g><path d="M456.4,3l0,39.5l3.2,0l22.1,-35.5l29.4,0l0,97.4c0.2,6.5 -5.2,11.9 -11.7,12l-10.9,0l0,4l79.5,0l0,-4l-10.9,0c-6.7,-0.2 -11.9,-5.5 -11.9,-12l0,-97.2l29.4,0l22.1,35.5l3.2,0l0,-39.6l-143.5,0l0,-0.1Zm-44.1,113.4l-38.5,0c-5.2,-0.3 -9.5,-4.2 -10.2,-9l0,-91.5c0,-4.9 5.2,-8.5 10.5,-8.7l13.5,0l0,-4l-83.1,0l0,4l16.1,0c4.5,0 9,4.3 9,8.7l0,89.9c0,5.9 -4.9,10.5 -10.7,10.5l-14.2,0l0,4l139,0l0,-46.3l-4.2,0l-27.2,42.4Zm-216,-109.2l8.9,0c6.4,0 11.7,4.3 12,10.4l0,88.3c0,5.7 -4.7,10.2 -10.5,10.4l-10.3,0l0,4l75.8,0l0,-4l-10.3,0c-5.9,-0.2 -10.5,-4.9 -10.5,-10.5l0,-88.2c0.3,-6.2 5.9,-10.4 12,-10.4l8.7,0l0,-4l-75.8,0l0,4Zm-99,60.5l11.2,0c5,0.3 9,4.3 9.2,9.4l0,28.6c-2.7,9.9 -24.1,13.7 -35.6,13.7c-43.3,0 -46.8,-24.9 -46.8,-53c0,-20.4 1.8,-62.4 47.5,-62.4c37,0 53.5,27.6 63.9,44.8l3.2,0l0,-48.8l-2.8,0c-2.7,3.5 -6.9,9.2 -16.1,9.2c-10.7,0 -28.8,-9.2 -49.5,-9.2c-39.8,0 -81.5,21.9 -81.5,64.9c0,27.8 25.9,58.5 77.3,58.5c29.3,0 52.2,-11.5 66.2,-11.5l6.9,0l0,-34.5c0.7,-5.4 5.5,-9.5 11.4,-9.5l5.7,0l0,-4l-70.1,0l0,3.8l-0.1,0Z" style="fill:#262626;fill-rule:nonzero;"/></g></g></g></svg>