<?xml version="1.0" encoding="UTF-8" standalone="no"?><!DOCTYPE svg PUBLIC "-//W3C//DTD SVG 1.1//EN" "http://www.w3.org/Graphics/SVG/1.1/DTD/svg11.dtd"><svg width="100%" height="100%" viewBox="0 0 809 342" version="1.1" xmlns="http://www.w3.org/2000/svg" xmlns:xlink="http://www.w3.org/1999/xlink" xml:space="preserve" xmlns:serif="http://www.serif.com/" style="fill-rule:evenodd;clip-rule:evenodd;stroke-linejoin:round;stroke-miterlimit:2;"><path d="M212.8,59.017l0,18.3l-2.4,0l0,-18.3l-6.7,0l0,-2.3l15.8,0l0,2.3l-6.7,0Z" style="fill:#6d6e71;fill-rule:nonzero;"/><path d="M245.7,77.317l0,-9.1l-12.4,0l0,9.1l-2.4,0l0,-20.6l2.4,0l0,9.3l12.4,0l0,-9.3l2.4,0l0,20.6l-2.4,0Z" style="fill:#6d6e71;fill-rule:nonzero;"/><path d="M264.5,59.017l0,6.8l10.4,0l0,2.3l-10.4,0l0,7.1l12,0l0,2.2l-14.4,0l0,-20.6l14,0l0,2.3l-11.6,0l0,-0.1Z" style="fill:#6d6e71;fill-rule:nonzero;"/><g><path d="M185.7,218.717l49.3,-117.8l9.5,0l49.3,117.8l-12.4,0l-15.3,-36.8l-53,0l-15.1,36.8l-12.3,0Zm54.1,-104.2l-24.2,58.2l47.8,0l-23.6,-58.2Z" style="fill:#d22128;fill-rule:nonzero;"/><path d="M306.4,218.717l0,-117.8l48.8,0c20.2,0 34.8,18.7 34.8,37c0,19.2 -13.6,37.3 -33.8,37.3l-38.3,0l0,43.5l-11.5,0Zm11.5,-53.8l37.7,0c13.9,0 22.9,-12.8 22.9,-27c0,-14.8 -10.9,-26.7 -23.9,-26.7l-36.7,0l0,53.7Z" style="fill:#d22128;fill-rule:nonzero;"/><path d="M383.6,218.717l49.3,-117.8l9.5,0l49.3,117.8l-12.6,0l-15.3,-36.8l-52.9,0l-15.1,36.8l-12.2,0Zm54.1,-104.2l-24.2,58.2l47.8,0l-23.6,-58.2Z" style="fill:#d22128;fill-rule:nonzero;"/><path d="M547.3,100.217c20.9,0 36.2,10.6 43.5,25.7l-9.3,5.6c-7.5,-15.6 -22.1,-20.9 -34.8,-20.9c-28.2,0 -43.6,25.2 -43.6,48.9c0,26 19.1,49.6 44.1,49.6c13.3,0 28.9,-6.6 36.3,-21.9l9.6,5c-7.6,17.6 -28.5,27.4 -46.6,27.4c-32.3,0 -55.1,-30.9 -55.1,-60.7c0,-28.3 20.4,-58.7 55.9,-58.7Z" style="fill:#d22128;fill-rule:nonzero;"/><path d="M702.2,100.917l0,117.8l-11.6,0l0,-55.1l-69.8,0l0,55.1l-11.4,0l0,-117.8l11.4,0l0,52.4l69.8,0l0,-52.4l11.6,0Z" style="fill:#d22128;fill-rule:nonzero;"/><path d="M807.9,208.417l0,10.3l-79.1,0l0,-117.8l77.6,0l0,10.3l-66.2,0l0,42.5l57.7,0l0,9.8l-57.7,0l0,44.9l67.7,0Z" style="fill:#d22128;fill-rule:nonzero;"/></g><path d="M196.7,243.617c1.4,0.4 2.6,1 3.7,1.7l-1.2,2.7c-1.1,-0.7 -2.2,-1.2 -3.4,-1.6c-1.2,-0.3 -2.4,-0.5 -3.4,-0.5c-1.6,0 -2.9,0.3 -3.8,0.9c-1,0.6 -1.4,1.4 -1.4,2.4c0,0.9 0.3,1.6 0.8,2.2c0.5,0.6 1.2,1 2,1.4c0.8,0.3 1.9,0.7 3.3,1.1c1.7,0.5 3.1,1.1 4.1,1.5c1,0.5 1.9,1.2 2.7,2.1c0.7,0.9 1.1,2.1 1.1,3.7c0,1.4 -0.4,2.6 -1.1,3.6c-0.7,1 -1.8,1.8 -3.2,2.4c-1.4,0.6 -2.9,0.9 -4.7,0.9c-1.8,0 -3.5,-0.3 -5.2,-1c-1.7,-0.7 -3.1,-1.6 -4.3,-2.8l1.3,-2.5c1.1,1.1 2.4,2 3.9,2.6c1.5,0.6 2.9,0.9 4.3,0.9c1.8,0 3.2,-0.3 4.3,-1c1,-0.7 1.6,-1.6 1.6,-2.8c0,-0.9 -0.3,-1.7 -0.8,-2.3c-0.5,-0.6 -1.2,-1.1 -2,-1.4c-0.8,-0.3 -1.9,-0.7 -3.3,-1.1c-1.7,-0.5 -3,-1 -4.1,-1.4c-1,-0.5 -1.9,-1.1 -2.7,-2.1c-0.7,-0.9 -1.1,-2.1 -1.1,-3.6c0,-1.3 0.4,-2.4 1.1,-3.4c0.7,-1 1.7,-1.7 3,-2.3c1.3,-0.5 2.8,-0.8 4.5,-0.8c1.2,-0.1 2.6,0.1 4,0.5Z" style="fill:#6d6e71;fill-rule:nonzero;"/><path d="M233.6,244.717c2,1.1 3.6,2.6 4.7,4.5c1.2,1.9 1.7,4 1.7,6.3c0,2.3 -0.6,4.4 -1.7,6.3c-1.2,1.9 -2.7,3.4 -4.7,4.6c-2,1.1 -4.2,1.7 -6.5,1.7c-2.4,0 -4.6,-0.6 -6.6,-1.7c-2,-1.1 -3.6,-2.6 -4.7,-4.6c-1.2,-1.9 -1.7,-4 -1.7,-6.3c0,-2.3 0.6,-4.4 1.7,-6.3c1.2,-1.9 2.7,-3.4 4.7,-4.5c2,-1.1 4.2,-1.7 6.6,-1.7c2.3,0 4.5,0.6 6.5,1.7Zm-11.6,2.3c-1.5,0.9 -2.8,2.1 -3.7,3.6c-0.9,1.5 -1.4,3.1 -1.4,4.9c0,1.8 0.5,3.5 1.4,5c0.9,1.5 2.2,2.7 3.7,3.6c1.5,0.9 3.2,1.3 5.1,1.3c1.8,0 3.5,-0.4 5,-1.3c1.5,-0.9 2.8,-2.1 3.7,-3.6c0.9,-1.5 1.4,-3.2 1.4,-5c0,-1.8 -0.5,-3.4 -1.4,-4.9c-0.9,-1.5 -2.1,-2.7 -3.7,-3.5c-1.5,-0.9 -3.2,-1.3 -5,-1.3c-1.8,-0.1 -3.5,0.3 -5.1,1.2Z" style="fill:#6d6e71;fill-rule:nonzero;"/><path d="M258,245.617l0,8.9l11.6,0l0,2.7l-11.6,0l0,10.6l-2.9,0l0,-24.9l15.8,0l0,2.7l-12.9,0Z" style="fill:#6d6e71;fill-rule:nonzero;"/><path d="M294,245.817l0,22.1l-2.8,0l0,-22.1l-8.1,0l0,-2.7l19,0l0,2.7l-8.1,0Z" style="fill:#6d6e71;fill-rule:nonzero;"/><path d="M338.9,267.917l-6.7,-20.9l-6.8,20.9l-2.9,0l-8.3,-24.9l3.1,0l6.8,21.6l6.7,-21.5l2.8,0l6.8,21.6l6.7,-21.6l2.9,0l-8.3,24.9l-2.8,0l0,-0.1Z" style="fill:#6d6e71;fill-rule:nonzero;"/><path d="M364.3,261.717l-2.8,6.3l-3,0l11.1,-24.9l2.9,0l11.1,24.9l-3.1,0l-2.8,-6.3l-13.4,0Zm6.8,-15.4l-5.5,12.6l11.1,0l-5.6,-12.6Z" style="fill:#6d6e71;fill-rule:nonzero;"/><path d="M408.4,260.017c-0.7,0 -1.3,0.1 -1.7,0.1l-6.6,0l0,7.9l-2.8,0l0,-24.9l9.4,0c3.1,0 5.5,0.7 7.2,2.2c1.7,1.5 2.6,3.5 2.6,6.2c0,2 -0.5,3.7 -1.4,5.1c-1,1.4 -2.3,2.4 -4.1,3l5.8,8.4l-3.2,0l-5.2,-8Zm3.6,-4.1c1.2,-1 1.8,-2.5 1.8,-4.4c0,-1.9 -0.6,-3.3 -1.8,-4.2c-1.2,-1 -3,-1.4 -5.2,-1.4l-6.6,0l0,11.5l6.6,0c2.2,0 4,-0.5 5.2,-1.5Z" style="fill:#6d6e71;fill-rule:nonzero;"/><path d="M435.3,245.717l0,8.3l12.5,0l0,2.7l-12.5,0l0,8.5l14.5,0l0,2.7l-17.3,0l0,-24.9l16.9,0l0,2.7l-14.1,0Z" style="fill:#6d6e71;fill-rule:nonzero;"/><path d="M489.4,245.617l0,8.9l11.6,0l0,2.7l-11.6,0l0,10.6l-2.8,0l0,-24.9l15.8,0l0,2.7l-13,0Z" style="fill:#6d6e71;fill-rule:nonzero;"/><path d="M533.8,244.717c2,1.1 3.6,2.6 4.7,4.5c1.2,1.9 1.7,4 1.7,6.3c0,2.3 -0.6,4.4 -1.7,6.3c-1.2,1.9 -2.7,3.4 -4.7,4.6c-2,1.1 -4.2,1.7 -6.5,1.7c-2.4,0 -4.6,-0.6 -6.6,-1.7c-2,-1.1 -3.6,-2.6 -4.7,-4.6c-1.2,-1.9 -1.7,-4 -1.7,-6.3c0,-2.3 0.6,-4.4 1.7,-6.3c1.2,-1.9 2.7,-3.4 4.7,-4.5c2,-1.1 4.2,-1.7 6.6,-1.7c2.4,0 4.6,0.6 6.5,1.7Zm-11.5,2.3c-1.5,0.9 -2.8,2.1 -3.7,3.6c-0.9,1.5 -1.4,3.1 -1.4,4.9c0,1.8 0.5,3.5 1.4,5c0.9,1.5 2.2,2.7 3.7,3.6c1.5,0.9 3.2,1.3 5.1,1.3c1.8,0 3.5,-0.4 5,-1.3c1.5,-0.9 2.8,-2.1 3.7,-3.6c0.9,-1.5 1.4,-3.2 1.4,-5c0,-1.8 -0.5,-3.4 -1.4,-4.9c-0.9,-1.5 -2.1,-2.7 -3.7,-3.5c-1.5,-0.9 -3.2,-1.3 -5,-1.3c-1.9,-0.1 -3.6,0.3 -5.1,1.2Z" style="fill:#6d6e71;fill-rule:nonzero;"/><path d="M573,265.317c-1.8,1.8 -4.4,2.7 -7.6,2.7c-3.3,0 -5.8,-0.9 -7.7,-2.7c-1.9,-1.8 -2.8,-4.4 -2.8,-7.6l0,-14.6l2.8,0l0,14.6c0,2.4 0.7,4.3 2,5.6c1.4,1.3 3.2,2 5.6,2c2.4,0 4.2,-0.7 5.6,-2c1.3,-1.3 2,-3.2 2,-5.6l0,-14.6l2.8,0l0,14.6c0,3.3 -0.9,5.8 -2.7,7.6Z" style="fill:#6d6e71;fill-rule:nonzero;"/><path d="M610.1,267.917l-14.9,-20l0,20l-2.8,0l0,-24.9l2.9,0l14.9,20l0,-20l2.8,0l0,24.9l-2.9,0Z" style="fill:#6d6e71;fill-rule:nonzero;"/><path d="M646.6,244.717c1.9,1.1 3.5,2.6 4.6,4.5c1.1,1.9 1.7,4 1.7,6.3c0,2.3 -0.6,4.4 -1.7,6.3c-1.1,1.9 -2.7,3.4 -4.6,4.5c-2,1.1 -4.2,1.6 -6.6,1.6l-10,0l0,-24.9l10.1,0c2.4,0.1 4.6,0.6 6.5,1.7Zm-13.7,20.5l7.2,0c1.8,0 3.5,-0.4 5,-1.3c1.5,-0.8 2.7,-2 3.6,-3.5c0.9,-1.5 1.3,-3.1 1.3,-5c0,-1.8 -0.4,-3.5 -1.3,-4.9c-0.9,-1.5 -2.1,-2.6 -3.6,-3.5c-1.5,-0.9 -3.2,-1.3 -5,-1.3l-7.1,0l0,19.5l-0.1,0Z" style="fill:#6d6e71;fill-rule:nonzero;"/><path d="M669,261.717l-2.8,6.3l-3,0l11.1,-24.9l2.9,0l11.1,24.9l-3.1,0l-2.8,-6.3l-13.4,0Zm6.8,-15.4l-5.5,12.6l11.1,0l-5.6,-12.6Z" style="fill:#6d6e71;fill-rule:nonzero;"/><path d="M707.1,245.817l0,22.1l-2.8,0l0,-22.1l-8.1,0l0,-2.7l19.1,0l0,2.7l-8.2,0Z" style="fill:#6d6e71;fill-rule:nonzero;"/><rect x="728.9" y="243.017" width="2.8" height="24.9" style="fill:#6d6e71;fill-rule:nonzero;"/><path d="M766.5,244.717c2,1.1 3.6,2.6 4.7,4.5c1.2,1.9 1.7,4 1.7,6.3c0,2.3 -0.6,4.4 -1.7,6.3c-1.2,1.9 -2.7,3.4 -4.7,4.6c-2,1.1 -4.2,1.7 -6.5,1.7c-2.4,0 -4.6,-0.6 -6.6,-1.7c-2,-1.1 -3.6,-2.6 -4.7,-4.6c-1.2,-1.9 -1.7,-4 -1.7,-6.3c0,-2.3 0.6,-4.4 1.7,-6.3c1.2,-1.9 2.7,-3.4 4.7,-4.5c2,-1.1 4.2,-1.7 6.6,-1.7c2.3,0 4.5,0.6 6.5,1.7Zm-11.6,2.3c-1.5,0.9 -2.8,2.1 -3.7,3.6c-0.9,1.5 -1.4,3.1 -1.4,4.9c0,1.8 0.5,3.5 1.4,5c0.9,1.5 2.2,2.7 3.7,3.6c1.5,0.9 3.2,1.3 5.1,1.3c1.8,0 3.5,-0.4 5,-1.3c1.5,-0.9 2.8,-2.1 3.7,-3.6c0.9,-1.5 1.4,-3.2 1.4,-5c0,-1.8 -0.5,-3.4 -1.4,-4.9c-0.9,-1.5 -2.1,-2.7 -3.7,-3.5c-1.5,-0.9 -3.2,-1.3 -5,-1.3c-1.9,-0.1 -3.6,0.3 -5.1,1.2Z" style="fill:#6d6e71;fill-rule:nonzero;"/><path d="M805.7,267.917l-14.9,-20l0,20l-2.8,0l0,-24.9l2.9,0l14.9,20l0,-20l2.8,0l0,24.9l-2.9,0Z" style="fill:#6d6e71;fill-rule:nonzero;"/><path d="M145.1,1.617c-5.4,3.2 -14.2,12.1 -24.9,25.1l9.8,18.4c6.8,-9.8 13.8,-18.6 20.8,-26.1c0.5,-0.6 0.8,-0.9 0.8,-0.9c-0.3,0.3 -0.5,0.6 -0.8,0.9c-2.3,2.5 -9.2,10.5 -19.5,26.5c10,-0.5 25.4,-2.5 37.9,-4.7c3.7,-20.9 -3.7,-30.5 -3.7,-30.5c0,0 -9.4,-15.2 -20.4,-8.7Z" style="fill:url(#_Linear1);fill-rule:nonzero;"/><path d="M128.6,106.617l0.2,0l-1.4,0.2c-0.1,0 -0.2,0.1 -0.2,0.1c0.4,-0.2 0.9,-0.2 1.4,-0.3Z" style="fill:none;fill-rule:nonzero;"/><path d="M118.6,139.617c-0.8,0.2 -1.6,0.3 -2.4,0.4c0.8,-0.1 1.6,-0.3 2.4,-0.4Z" style="fill:none;fill-rule:nonzero;"/><path d="M51,213.517c0.1,-0.3 0.2,-0.6 0.3,-0.8c2.1,-5.7 4.3,-11.2 6.4,-16.5c2.4,-6 4.7,-11.9 7,-17.5c2.4,-6 4.8,-11.7 7.2,-17.3c2.5,-5.8 4.9,-11.5 7.3,-16.9c2,-4.4 3.9,-8.7 5.8,-12.8c0.6,-1.4 1.3,-2.7 1.9,-4.1c1.2,-2.7 2.5,-5.3 3.7,-7.9c1.1,-2.4 2.2,-4.7 3.3,-6.9c0.4,-0.8 0.7,-1.5 1.1,-2.3c0.1,-0.1 0.1,-0.2 0.2,-0.4l-1.2,0.1l-0.9,-1.9c-0.1,0.2 -0.2,0.4 -0.3,0.5c-1.7,3.4 -3.4,6.8 -5.1,10.3c-1,2 -1.9,4 -2.9,6c-2.7,5.6 -5.3,11.2 -7.9,16.9c-2.6,5.7 -5.2,11.5 -7.7,17.3c-2.5,5.7 -4.9,11.4 -7.2,17c-2.4,5.7 -4.7,11.3 -6.9,16.9c-2.3,5.8 -4.6,11.6 -6.8,17.4c-0.5,1.3 -1,2.6 -1.5,3.9c-1.8,4.6 -3.5,9.2 -5.2,13.7l1.5,3l1.3,-0.1c0,-0.1 0.1,-0.3 0.1,-0.4c2.2,-5.8 4.3,-11.6 6.5,-17.2Z" style="fill:none;fill-rule:nonzero;"/><path d="M115.6,140.117l0,0Z" style="fill:none;fill-rule:nonzero;"/><path d="M112.3,156.217c-1.2,0.2 -2.5,0.4 -3.8,0.7c0.7,-0.1 1.3,-0.2 2,-0.3c0.6,-0.2 1.2,-0.3 1.8,-0.4Z" style="fill:#be202e;fill-rule:nonzero;"/><path d="M112.3,156.217c-1.2,0.2 -2.5,0.4 -3.8,0.7c0.7,-0.1 1.3,-0.2 2,-0.3c0.6,-0.2 1.2,-0.3 1.8,-0.4Z" style="fill:#be202e;fill-opacity:0.35;fill-rule:nonzero;"/><path d="M115.6,140.117c0.2,0 0.4,0 0.6,-0.1c0.8,-0.1 1.6,-0.3 2.4,-0.4c-1,0.1 -2,0.3 -3,0.5Z" style="fill:#be202e;fill-rule:nonzero;"/><path d="M115.6,140.117c0.2,0 0.4,0 0.6,-0.1c0.8,-0.1 1.6,-0.3 2.4,-0.4c-1,0.1 -2,0.3 -3,0.5Z" style="fill:#be202e;fill-opacity:0.35;fill-rule:nonzero;"/><path d="M101.2,92.617c3,-5.5 6,-11 9,-16.2c3.2,-5.5 6.3,-10.8 9.6,-15.9c0.2,-0.3 0.4,-0.6 0.6,-0.9c3.2,-5 6.4,-9.9 9.6,-14.5l-9.8,-18.4c-0.7,0.9 -1.5,1.8 -2.2,2.7c-2.8,3.5 -5.7,7.3 -8.7,11.3c-3.4,4.5 -6.8,9.3 -10.4,14.4c-3.3,4.7 -6.6,9.5 -9.9,14.6c-2.8,4.3 -5.6,8.7 -8.4,13.3c-0.1,0.2 -0.2,0.3 -0.3,0.5l12.7,25.1c2.7,-5.5 5.4,-10.8 8.2,-16Z" style="fill:url(#_Linear2);fill-rule:nonzero;"/><path d="M43.4,233.817c-1.7,4.6 -3.4,9.3 -5.1,14.1c0,0.1 0,0.1 -0.1,0.2c-0.2,0.7 -0.5,1.4 -0.7,2c-1.1,3.2 -2.1,6.1 -4.4,12.8c3.7,1.7 6.7,6.2 9.6,11.3c-0.3,-5.3 -2.5,-10.2 -6.6,-14.1c18.4,0.8 34.3,-3.8 42.5,-17.3c0.7,-1.2 1.4,-2.5 2,-3.8c-3.7,4.7 -8.4,6.7 -17.1,6.3l-0.1,0l0.1,0c12.8,-5.7 19.2,-11.2 24.9,-20.4c1.3,-2.2 2.7,-4.5 4,-7.1c-11.2,11.5 -24.2,14.8 -37.9,12.3l-10.3,1.1c-0.1,0.9 -0.5,1.8 -0.8,2.6Z" style="fill:url(#_Linear3);fill-rule:nonzero;"/><path d="M48.2,210.917c2.2,-5.7 4.5,-11.5 6.8,-17.4c2.2,-5.6 4.5,-11.2 6.9,-16.9c2.4,-5.7 4.8,-11.3 7.2,-17c2.5,-5.8 5.1,-11.6 7.7,-17.3c2.6,-5.7 5.2,-11.3 7.9,-16.9c1,-2 1.9,-4 2.9,-6c1.7,-3.5 3.4,-6.9 5.1,-10.3c0.1,-0.2 0.2,-0.4 0.3,-0.5l-12.7,-25.2c-0.2,0.3 -0.4,0.7 -0.6,1c-3,4.8 -5.9,9.8 -8.8,14.8c-2.9,5.1 -5.8,10.3 -8.6,15.5c-2.4,4.4 -4.7,8.9 -6.9,13.4c-0.5,0.9 -0.9,1.8 -1.3,2.7c-2.8,5.7 -5.3,11.2 -7.5,16.5c-2.6,6 -4.8,11.7 -6.8,17.1c-1.3,3.6 -2.5,7 -3.6,10.3c-0.9,2.8 -1.7,5.7 -2.5,8.5c-1.9,6.6 -3.5,13.3 -4.9,19.9l12.7,25.3c1.7,-4.5 3.4,-9.1 5.2,-13.7c0.5,-1.2 1,-2.5 1.5,-3.8Z" style="fill:url(#_Linear4);fill-rule:nonzero;"/><path d="M28.6,204.117c-1.6,8.1 -2.7,16.1 -3.3,24.1c0,0.3 0,0.6 -0.1,0.8c-4,-6.4 -14.6,-12.6 -14.6,-12.5c7.6,11.1 13.4,22 14.3,32.8c-4.1,0.8 -9.7,-0.4 -16.1,-2.7c6.7,6.2 11.8,7.9 13.8,8.4c-6.2,0.4 -12.6,4.6 -19.1,9.5c9.5,-3.9 17.2,-5.4 22.7,-4.2c-8.7,24.7 -17.5,51.9 -26.2,80.9c2.7,-0.8 4.3,-2.6 5.2,-5c1.6,-5.2 11.9,-39.6 28.1,-84.8c0.5,-1.3 0.9,-2.6 1.4,-3.9c0.1,-0.4 0.3,-0.7 0.4,-1.1c1.7,-4.7 3.5,-9.6 5.3,-14.5c0.4,-1.1 0.8,-2.2 1.3,-3.4l0,-0.1l-12.7,-25.2c-0.3,0.4 -0.3,0.7 -0.4,0.9Z" style="fill:url(#_Linear5);fill-rule:nonzero;"/><path d="M95,110.617c-0.4,0.7 -0.7,1.5 -1.1,2.3c-1.1,2.3 -2.2,4.6 -3.3,6.9c-1.2,2.6 -2.4,5.2 -3.7,7.9c-0.6,1.3 -1.3,2.7 -1.9,4.1c-1.9,4.1 -3.8,8.4 -5.8,12.8c-2.4,5.4 -4.8,11 -7.3,16.9c-2.4,5.6 -4.8,11.3 -7.2,17.3c-2.3,5.7 -4.6,11.5 -7,17.5c-2.1,5.4 -4.2,10.9 -6.4,16.5c-0.1,0.3 -0.2,0.5 -0.3,0.8c-2.1,5.6 -4.3,11.4 -6.4,17.3c0,0.1 -0.1,0.3 -0.1,0.4l10.3,-1.1c-0.2,0 -0.4,-0.1 -0.6,-0.1c12.3,-1.5 28.6,-10.7 39.1,-22c4.9,-5.2 9.3,-11.4 13.3,-18.6c3,-5.4 5.9,-11.3 8.6,-17.9c2.4,-5.8 4.6,-12 6.8,-18.7c-2.8,1.5 -6,2.6 -9.6,3.3c-0.6,0.1 -1.3,0.3 -1.9,0.4c-0.6,0.1 -1.3,0.2 -2,0.3c11.4,-4.4 18.7,-12.9 23.9,-23.3c-3,2.1 -7.9,4.7 -13.8,6c-0.8,0.2 -1.6,0.3 -2.4,0.4c-0.2,0 -0.4,0.1 -0.6,0.1c4,-1.7 7.3,-3.5 10.2,-5.7c0.6,-0.5 1.2,-1 1.8,-1.5c0.9,-0.8 1.7,-1.6 2.5,-2.4c0.5,-0.5 1,-1.1 1.5,-1.7c1.1,-1.4 2.2,-2.8 3.2,-4.4c0.3,-0.5 0.6,-1 0.9,-1.5c0.4,-0.7 0.7,-1.5 1.1,-2.2c1.6,-3.2 2.9,-6.1 3.9,-8.6c0.5,-1.3 1,-2.4 1.3,-3.5c0.2,-0.4 0.3,-0.8 0.4,-1.3c0.4,-1.2 0.7,-2.3 1,-3.2c0.4,-1.4 0.6,-2.5 0.8,-3.3c-0.4,0.3 -0.8,0.6 -1.3,0.9c-3.5,2.1 -9.4,3.9 -14.2,4.8l9.4,-1l-9.4,1l-0.2,0c-0.5,0.1 -1,0.2 -1.4,0.2c0.1,0 0.2,-0.1 0.2,-0.1l-32.2,3.5c0,0.3 -0.1,0.4 -0.1,0.5Z" style="fill:url(#_Linear6);fill-rule:nonzero;"/><path d="M131.2,45.417c-2.9,4.4 -6,9.4 -9.4,15.1c-0.2,0.3 -0.4,0.6 -0.5,0.9c-2.9,4.9 -6,10.3 -9.2,16.2c-2.8,5.1 -5.7,10.5 -8.8,16.4c-2.6,5.1 -5.4,10.5 -8.2,16.3l32.2,-3.5c9.4,-4.3 13.6,-8.2 17.7,-13.9c1.1,-1.6 2.2,-3.2 3.3,-4.9c3.3,-5.2 6.6,-10.9 9.5,-16.5c2.8,-5.5 5.3,-10.9 7.2,-15.8c1.2,-3.1 2.2,-6 2.8,-8.5c0.6,-2.2 1,-4.4 1.4,-6.4c-12.6,2.1 -28,4.1 -38,4.6Z" style="fill:url(#_Linear7);fill-rule:nonzero;"/><path d="M110.4,156.517c-0.6,0.1 -1.3,0.2 -2,0.3c0.7,0 1.4,-0.1 2,-0.3Z" style="fill:#be202e;fill-rule:nonzero;"/><path d="M110.4,156.517c-0.6,0.1 -1.3,0.2 -2,0.3c0.7,0 1.4,-0.1 2,-0.3Z" style="fill:#be202e;fill-opacity:0.35;fill-rule:nonzero;"/><path d="M110.4,156.517c-0.6,0.1 -1.3,0.2 -2,0.3c0.7,0 1.4,-0.1 2,-0.3Z" style="fill:url(#_Linear8);fill-rule:nonzero;"/><path d="M115.6,140.117c0.2,0 0.4,-0.1 0.6,-0.1c-0.2,0 -0.4,0.1 -0.6,0.1Z" style="fill:#be202e;fill-rule:nonzero;"/><path d="M115.6,140.117c0.2,0 0.4,-0.1 0.6,-0.1c-0.2,0 -0.4,0.1 -0.6,0.1Z" style="fill:#be202e;fill-opacity:0.35;fill-rule:nonzero;"/><path d="M115.6,140.117c0.2,0 0.4,-0.1 0.6,-0.1c-0.2,0 -0.4,0.1 -0.6,0.1Z" style="fill:url(#_Linear9);fill-rule:nonzero;"/><defs><linearGradient id="_Linear1" x1="0" y1="0" x2="1" y2="0" gradientUnits="userSpaceOnUse" gradientTransform="matrix(71.4333,-19.8608,19.8608,71.4333,128.624,28.9016)"><stop offset="0" style="stop-color:#f69923;stop-opacity:1"/><stop offset="0.31" style="stop-color:#f79a23;stop-opacity:1"/><stop offset="0.84" style="stop-color:#e97826;stop-opacity:1"/><stop offset="1" style="stop-color:#e97826;stop-opacity:1"/></linearGradient><linearGradient id="_Linear2" x1="0" y1="0" x2="1" y2="0" gradientUnits="userSpaceOnUse" gradientTransform="matrix(145.291,-311.588,311.588,145.291,-27.7315,349.501)"><stop offset="0" style="stop-color:#9e2064;stop-opacity:1"/><stop offset="0.32" style="stop-color:#9e2064;stop-opacity:1"/><stop offset="0.63" style="stop-color:#c92037;stop-opacity:1"/><stop offset="0.75" style="stop-color:#cd2335;stop-opacity:1"/><stop offset="1" style="stop-color:#e97826;stop-opacity:1"/></linearGradient><linearGradient id="_Linear3" x1="0" y1="0" x2="1" y2="0" gradientUnits="userSpaceOnUse" gradientTransform="matrix(86.5791,-185.676,185.676,86.5791,21.0589,326.461)"><stop offset="0" style="stop-color:#282662;stop-opacity:1"/><stop offset="0.1" style="stop-color:#662e8d;stop-opacity:1"/><stop offset="0.79" style="stop-color:#9f2064;stop-opacity:1"/><stop offset="0.95" style="stop-color:#cd2032;stop-opacity:1"/><stop offset="1" style="stop-color:#cd2032;stop-opacity:1"/></linearGradient><linearGradient id="_Linear4" x1="0" y1="0" x2="1" y2="0" gradientUnits="userSpaceOnUse" gradientTransform="matrix(145.29,-311.587,311.587,145.29,-22.4744,330.646)"><stop offset="0" style="stop-color:#9e2064;stop-opacity:1"/><stop offset="0.32" style="stop-color:#9e2064;stop-opacity:1"/><stop offset="0.63" style="stop-color:#c92037;stop-opacity:1"/><stop offset="0.75" style="stop-color:#cd2335;stop-opacity:1"/><stop offset="1" style="stop-color:#e97826;stop-opacity:1"/></linearGradient><linearGradient id="_Linear5" x1="0" y1="0" x2="1" y2="0" gradientUnits="userSpaceOnUse" gradientTransform="matrix(76.3544,-163.748,163.748,76.3544,-7.66263,309.888)"><stop offset="0" style="stop-color:#282662;stop-opacity:1"/><stop offset="0.1" style="stop-color:#662e8d;stop-opacity:1"/><stop offset="0.79" style="stop-color:#9f2064;stop-opacity:1"/><stop offset="0.95" style="stop-color:#cd2032;stop-opacity:1"/><stop offset="1" style="stop-color:#cd2032;stop-opacity:1"/></linearGradient><linearGradient id="_Linear6" x1="0" y1="0" x2="1" y2="0" gradientUnits="userSpaceOnUse" gradientTransform="matrix(145.29,-311.587,311.587,145.29,9.77381,345.684)"><stop offset="0" style="stop-color:#9e2064;stop-opacity:1"/><stop offset="0.32" style="stop-color:#9e2064;stop-opacity:1"/><stop offset="0.63" style="stop-color:#c92037;stop-opacity:1"/><stop offset="0.75" style="stop-color:#cd2335;stop-opacity:1"/><stop offset="1" style="stop-color:#e97826;stop-opacity:1"/></linearGradient><linearGradient id="_Linear7" x1="0" y1="0" x2="1" y2="0" gradientUnits="userSpaceOnUse" gradientTransform="matrix(145.29,-311.587,311.587,145.29,-0.840495,364.266)"><stop offset="0" style="stop-color:#9e2064;stop-opacity:1"/><stop offset="0.32" style="stop-color:#9e2064;stop-opacity:1"/><stop offset="0.63" style="stop-color:#c92037;stop-opacity:1"/><stop offset="0.75" style="stop-color:#cd2335;stop-opacity:1"/><stop offset="1" style="stop-color:#e97826;stop-opacity:1"/></linearGradient><linearGradient id="_Linear8" x1="0" y1="0" x2="1" y2="0" gradientUnits="userSpaceOnUse" gradientTransform="matrix(145.29,-311.587,311.587,145.29,19.3651,350.156)"><stop offset="0" style="stop-color:#9e2064;stop-opacity:1"/><stop offset="0.32" style="stop-color:#9e2064;stop-opacity:1"/><stop offset="0.63" style="stop-color:#c92037;stop-opacity:1"/><stop offset="0.75" style="stop-color:#cd2335;stop-opacity:1"/><stop offset="1" style="stop-color:#e97826;stop-opacity:1"/></linearGradient><linearGradient id="_Linear9" x1="0" y1="0" x2="1" y2="0" gradientUnits="userSpaceOnUse" gradientTransform="matrix(145.29,-311.587,311.587,145.29,18.2676,349.644)"><stop offset="0" style="stop-color:#9e2064;stop-opacity:1"/><stop offset="0.32" style="stop-color:#9e2064;stop-opacity:1"/><stop offset="0.63" style="stop-color:#c92037;stop-opacity:1"/><stop offset="0.75" style="stop-color:#cd2335;stop-opacity:1"/><stop offset="1" style="stop-color:#e97826;stop-opacity:1"/></linearGradient></defs></svg>