<?xml version="1.0" encoding="UTF-8" standalone="no"?><!DOCTYPE svg PUBLIC "-//W3C//DTD SVG 1.1//EN" "http://www.w3.org/Graphics/SVG/1.1/DTD/svg11.dtd"><svg width="100%" height="100%" viewBox="0 0 247 185" version="1.1" xmlns="http://www.w3.org/2000/svg" xmlns:xlink="http://www.w3.org/1999/xlink" xml:space="preserve" xmlns:serif="http://www.serif.com/" style="fill-rule:evenodd;clip-rule:evenodd;stroke-linejoin:round;stroke-miterlimit:2;"><g><g><circle cx="107.781" cy="93.808" r="60.474" style="fill:#45bbc6;"/><g><g><clipPath id="_clip1"><circle cx="107.781" cy="93.808" r="60.474"/></clipPath><g clip-path="url(#_clip1)"><g><path d="M224.937,72.028c0.69,0.403 1.552,0.69 2.07,1.207c1.494,1.495 2.874,3.047 4.254,4.657c0.632,0.689 1.149,0.804 1.724,0.057c0.862,-1.207 1.667,-2.529 2.644,-3.679c1.84,-2.127 1.782,-5.116 -0.517,-6.783c-2.069,-1.495 -4.196,-2.874 -6.266,-4.254c-0.747,-0.46 -1.207,-0.92 0,-1.38c0.345,-0.115 0.69,-0.402 1.092,-0.459c2.76,-0.23 5.519,-0.518 8.278,-0.633c1.897,-0.115 3.622,-0.575 4.657,-2.127c1.379,-1.954 2.471,-4.081 3.564,-6.208c0.517,-1.092 -0.23,-2.702 -1.38,-3.104c-1.035,-0.345 -2.127,-0.69 -3.219,-0.69c-3.162,-0.115 -6.266,-0.057 -9.428,-0.115c-1.494,-0.057 -2.989,-0.345 -4.541,-0.345c-2.644,0 -5.346,0.288 -7.99,0.288c-3.162,0 -6.324,-0.058 -9.485,-0.345c-2.3,-0.23 -4.484,-0.978 -6.783,-1.265c-3.565,-0.517 -7.186,-0.402 -10.578,-1.84c-0.804,-0.344 -1.839,-0.632 -2.586,-0.344c-2.3,0.919 -4.657,1.897 -6.784,3.219c-3.679,2.299 -7.53,3.794 -11.956,3.334c-2.07,-0.23 -4.082,-0.403 -6.151,-0.69c-2.185,-0.345 -4.312,-0.92 -6.496,-1.207c-4.081,-0.518 -7.473,1.437 -10.807,3.449c-1.437,0.862 -1.495,1.782 -0.69,3.277c0.69,1.207 1.38,2.356 2.012,3.564c0.805,1.494 1.437,1.609 2.989,0.919c1.725,-0.747 3.449,-1.379 5.231,-2.012c1.15,-0.402 1.782,0.403 2.012,1.38c0.46,2.357 -0.977,3.966 -3.391,3.966c-4.829,0 -9.658,-0.057 -14.429,-0.057c-0.747,0 -1.552,0.23 -2.242,0.517c-0.977,0.403 -1.897,0.978 -2.932,1.38c-1.149,0.402 -2.012,0.977 -1.897,2.299c0.173,1.322 0.345,2.645 0.69,3.967c0.862,3.334 3.162,4.656 6.266,3.334c2.874,-1.207 5.634,-2.702 8.508,-3.967c0.92,-0.402 2.127,-0.862 2.874,-0.517c2.472,1.035 5.059,1.61 7.703,1.552c1.495,0 3.047,-0.057 4.541,0c1.955,0.115 2.702,1.61 1.61,3.219c-0.345,0.46 -0.748,0.863 -1.207,1.265c-2.645,2.529 -5.519,4.656 -9.485,3.966c-1.955,-0.345 -3.909,-0.747 -5.806,-1.322c-3.679,-1.207 -7.473,-2.012 -11.382,-1.667c-2.185,0.173 -3.967,1.265 -5.404,2.817c-1.609,1.782 -2.932,3.794 -4.484,5.576c-4.024,4.484 -3.794,5.863 0.23,9.772c3.105,3.047 6.669,5.519 11.095,6.209c2.357,0.402 4.771,0.517 7.185,0.689c0.92,0.058 1.38,0.288 1.208,1.38c-0.288,1.84 -0.633,3.679 -0.633,5.519c0,3.046 0.288,6.093 0.46,9.197c0.173,2.472 1.322,4.426 3.047,6.209c1.437,1.437 2.759,3.046 4.081,4.598c0.633,0.748 1.15,1.552 1.782,2.3c0.633,0.747 1.495,0.862 2.185,0.172c1.437,-1.494 3.219,-2.817 4.081,-4.599c2.299,-4.771 4.369,-9.657 6.151,-14.601c1.495,-4.139 3.621,-7.473 7.53,-9.715c1.955,-1.092 3.737,-2.644 5.404,-4.139c1.38,-1.207 1.15,-1.839 -0.46,-2.586c-0.575,-0.23 -1.265,-0.403 -1.782,-0.69c-5.001,-2.817 -9.14,-6.611 -12.761,-10.98c-0.575,-0.69 -0.748,-1.667 -1.093,-2.529c1.897,-0.632 2.587,0.517 3.047,1.495c2.242,4.253 5.863,6.553 10.29,7.875c1.322,0.402 2.644,0.172 3.621,-1.035c1.667,-2.069 1.61,-2.874 -0.057,-4.886c-1.61,-1.954 -2.989,-4.081 -4.484,-6.093c0,0 0.057,-0.115 0.115,-0.345c1.437,0.517 2.932,0.977 4.369,1.552c2.529,1.092 5.288,2.012 7.07,4.254c1.897,2.414 3.794,4.828 5.634,7.3c0.747,1.035 1.322,2.242 2.184,3.104c0.46,0.46 1.495,0.69 2.185,0.518c0.575,-0.173 1.322,-0.92 1.437,-1.552c0.402,-1.495 0.517,-3.047 0.69,-4.599c0.46,-4.311 3.161,-5.634 6.783,-3.334c1.322,0.862 2.414,1.954 3.621,2.989c1.955,1.667 3.737,3.564 5.921,4.886c3.047,1.84 3.622,1.552 5.576,-0.747c1.552,-1.84 1.61,-2.989 0.345,-4.886c-0.46,-0.633 -0.862,-1.265 -1.322,-1.897c-1.38,-2.127 -1.839,-4.427 -1.322,-6.841c0.69,-2.644 1.38,-5.116 2.184,-8.163Z" style="fill:#cce4c4;fill-rule:nonzero;"/></g><g><path d="M71.741,85.25c3.161,-0.23 6.151,-0.46 9.197,-0.69c2.472,-0.173 4.369,-1.265 5.634,-3.507c0.632,-1.149 1.322,-2.299 2.184,-3.276c2.989,-3.564 6.611,-5.864 11.497,-5.461c2.587,0.172 4.541,-0.92 5.864,-3.047c0.804,-1.322 1.609,-2.702 2.127,-4.139c1.092,-3.334 0.287,-5.116 -2.932,-6.898c-0.633,-0.345 -1.322,-0.862 -2.012,-0.862c-2.357,-0.115 -4.771,-0.345 -7.071,0.057c-1.609,0.23 -2.472,0.46 -3.391,-0.977c-0.69,-1.035 -0.46,-2.012 0.402,-2.932c0.287,-0.287 0.402,-1.15 0.345,-1.207c-1.667,-0.632 -2.702,-1.954 -3.679,-3.334c-0.115,-0.173 -0.402,-0.345 -0.632,-0.345c-3.737,-0.115 -7.416,-0.575 -10.922,1.954c-3.335,2.415 -7.301,2.645 -11.095,0.518c-2.472,-1.38 -4.599,-3.277 -7.473,-3.967c-2.989,-0.689 -5.633,-0.632 -8.22,1.265c-2.415,1.782 -4.886,3.564 -7.588,4.886c-1.955,0.977 -1.84,3.334 -0.403,4.312c2.76,1.954 5.749,3.391 9.198,3.104c1.839,-0.115 3.679,-0.46 5.576,-0.518c0.632,0 1.667,0.575 1.782,1.035c0.23,0.805 0,1.897 -0.345,2.702c-0.69,1.609 -1.61,3.104 -2.472,4.656c-1.839,3.277 -3.104,6.611 -2.587,10.52c0.23,1.667 -0.057,3.449 0.115,5.173c0.173,2.07 0.633,4.312 2.587,5.404c2.127,1.207 4.599,1.552 7.128,1.15c2.932,-0.46 5.921,-0.748 8.623,0.977c2.414,1.495 3.449,4.081 4.714,6.496c1.092,2.069 0.862,3.851 -1.093,5.288c-0.344,0.23 -0.459,0.748 -0.747,1.092c-0.862,0.978 -0.402,1.668 0.518,2.242c1.954,1.265 3.908,2.472 5.805,3.737c2.185,1.437 3.967,3.334 4.657,5.863c1.264,4.887 0.747,9.888 0.287,14.889c-0.287,3.276 0.23,6.323 2.127,9.082c1.84,2.645 4.426,4.197 7.301,5.346c3.219,1.265 5.461,-0.229 6.38,-2.644c0.92,-2.472 1.552,-5.116 2.242,-7.645c0.633,-2.357 1.437,-4.484 3.449,-6.094c1.208,-0.977 2.415,-2.127 3.162,-3.449c2.759,-4.943 3.794,-10.404 4.426,-15.923c0.115,-0.92 0.23,-1.897 0.403,-2.817c0.46,-2.127 -0.46,-4.426 -2.185,-5.001c-2.299,-0.747 -4.713,-1.207 -7.013,-1.954c-2.012,-0.633 -4.024,-1.265 -5.863,-2.185c-2.242,-1.092 -4.254,-2.931 -6.553,-3.736c-4.082,-1.38 -8.393,-2.07 -12.532,-3.162c-2.587,-0.69 -5.231,-1.495 -7.703,-2.587c-1.61,-0.632 -3.104,-1.552 -3.219,-3.391Z" style="fill:#cce4c4;fill-rule:nonzero;"/></g><g><path d="M108.991,46.39c0.46,0.805 0.805,1.265 1.035,1.725c0.689,1.322 1.322,2.701 1.954,4.024c0.46,1.034 0.402,2.529 1.667,2.931c2.357,0.748 4.829,0.69 7.071,-0.172c2.874,-1.092 5.633,-2.53 8.392,-4.024c2.185,-1.15 4.369,-2.357 5.634,-4.714c0.402,-0.747 0.632,-1.322 -0.23,-2.069c-3.047,-2.53 -6.381,-4.542 -10.232,-5.231c-4.657,-0.863 -9.025,0.172 -12.532,3.621c-1.035,1.207 -1.782,2.587 -2.759,3.909Z" style="fill:#cce4c4;fill-rule:nonzero;"/></g><g opacity="0.5"><path d="M224.937,72.028c-0.804,3.047 -1.494,5.519 -2.069,8.048c-0.517,2.414 -0.058,4.771 1.322,6.841c0.402,0.632 0.862,1.264 1.322,1.897c1.322,1.954 1.265,3.046 -0.345,4.886c-1.954,2.299 -2.587,2.587 -5.576,0.747c-2.184,-1.322 -3.966,-3.219 -5.921,-4.886c-1.207,-0.977 -2.299,-2.127 -3.621,-2.989c-3.622,-2.357 -6.381,-0.977 -6.783,3.334c-0.173,1.552 -0.288,3.104 -0.69,4.599c-0.173,0.632 -0.862,1.379 -1.437,1.552c-0.633,0.172 -1.725,-0.058 -2.185,-0.518c-0.862,-0.862 -1.437,-2.069 -2.184,-3.104c-1.84,-2.472 -3.679,-4.886 -5.634,-7.3c-1.839,-2.3 -4.541,-3.162 -7.07,-4.254c-1.437,-0.632 -2.874,-1.035 -4.369,-1.552c-0.115,0.287 -0.115,0.345 -0.115,0.345c1.495,2.069 2.874,4.139 4.484,6.093c1.667,1.955 1.724,2.817 0.057,4.886c-0.977,1.207 -2.299,1.437 -3.621,1.035c-4.427,-1.322 -8.048,-3.622 -10.29,-7.875c-0.517,-0.92 -1.15,-2.07 -3.047,-1.495c0.345,0.862 0.518,1.897 1.092,2.529c3.622,4.427 7.761,8.163 12.762,10.98c0.575,0.287 1.207,0.46 1.782,0.69c1.61,0.689 1.84,1.322 0.46,2.586c-1.667,1.495 -3.449,3.047 -5.404,4.139c-3.909,2.242 -6.035,5.576 -7.53,9.715c-1.782,4.944 -3.852,9.83 -6.151,14.601c-0.862,1.782 -2.644,3.105 -4.081,4.599c-0.69,0.69 -1.552,0.575 -2.185,-0.172c-0.632,-0.748 -1.149,-1.552 -1.782,-2.3c-1.322,-1.552 -2.644,-3.104 -4.081,-4.598c-1.725,-1.725 -2.932,-3.737 -3.047,-6.209c-0.172,-3.046 -0.46,-6.093 -0.46,-9.197c0,-1.84 0.345,-3.679 0.633,-5.519c0.172,-1.092 -0.23,-1.322 -1.208,-1.379c-2.414,-0.173 -4.828,-0.288 -7.185,-0.69c-4.426,-0.748 -7.933,-3.162 -11.095,-6.209c-4.024,-3.966 -4.196,-5.288 -0.23,-9.772c1.61,-1.782 2.932,-3.794 4.484,-5.576c1.437,-1.61 3.162,-2.644 5.404,-2.817c3.909,-0.345 7.645,0.46 11.382,1.667c1.897,0.633 3.851,0.977 5.806,1.322c3.966,0.69 6.84,-1.437 9.485,-3.966c0.402,-0.402 0.862,-0.805 1.207,-1.265c1.092,-1.609 0.345,-3.104 -1.61,-3.219c-1.494,-0.115 -3.046,-0.057 -4.541,0c-2.702,0.058 -5.231,-0.517 -7.703,-1.552c-0.747,-0.345 -2.012,0.115 -2.874,0.517c-2.874,1.265 -5.634,2.76 -8.508,3.967c-3.104,1.265 -5.404,0 -6.266,-3.334c-0.345,-1.265 -0.575,-2.645 -0.69,-3.967c-0.172,-1.322 0.748,-1.897 1.897,-2.299c0.978,-0.345 1.897,-0.977 2.932,-1.38c0.69,-0.287 1.495,-0.517 2.242,-0.517c4.829,0 9.657,0.057 14.429,0.057c2.471,0 3.851,-1.667 3.391,-3.966c-0.172,-0.92 -0.862,-1.725 -2.012,-1.38c-1.782,0.575 -3.506,1.208 -5.231,2.012c-1.552,0.69 -2.184,0.575 -2.989,-0.919c-0.69,-1.208 -1.322,-2.415 -2.012,-3.564c-0.805,-1.438 -0.747,-2.415 0.69,-3.277c3.334,-1.955 6.668,-3.967 10.807,-3.449c2.184,0.287 4.311,0.862 6.496,1.207c2.012,0.287 4.081,0.46 6.151,0.69c4.426,0.46 8.277,-1.035 11.956,-3.334c2.127,-1.322 4.427,-2.3 6.784,-3.219c0.689,-0.288 1.782,0.057 2.586,0.344c3.392,1.438 7.071,1.323 10.577,1.84c2.242,0.287 4.484,1.035 6.784,1.265c3.161,0.287 6.323,0.345 9.485,0.345c2.644,0 5.346,-0.23 7.99,-0.288c1.495,0 2.989,0.345 4.541,0.345c3.162,0.058 6.266,0 9.428,0.115c1.092,0.058 2.184,0.345 3.219,0.69c1.15,0.402 1.897,2.012 1.38,3.104c-1.035,2.127 -2.185,4.254 -3.565,6.208c-1.034,1.552 -2.816,2.012 -4.656,2.127c-2.759,0.115 -5.518,0.403 -8.278,0.633c-0.344,0.057 -0.689,0.287 -1.092,0.459c-1.207,0.46 -0.747,0.92 0,1.38c2.127,1.437 4.254,2.759 6.266,4.254c2.242,1.667 2.357,4.656 0.517,6.783c-0.977,1.15 -1.724,2.472 -2.644,3.679c-0.575,0.747 -1.092,0.69 -1.724,-0.057c-1.38,-1.61 -2.76,-3.162 -4.254,-4.657c-0.633,-0.402 -1.495,-0.689 -2.185,-1.092Z" style="fill:#cce4c4;fill-rule:nonzero;"/></g><g opacity="0.5"><path d="M71.741,85.25c0.115,1.839 1.609,2.759 2.932,3.334c2.471,1.092 5.058,1.897 7.702,2.587c4.197,1.149 8.451,1.839 12.532,3.161c2.357,0.748 4.311,2.587 6.553,3.737c1.897,0.92 3.909,1.609 5.864,2.184c2.299,0.747 4.714,1.207 7.013,1.955c1.782,0.575 2.644,2.874 2.184,5.001c-0.172,0.92 -0.287,1.897 -0.402,2.817c-0.575,5.576 -1.61,11.037 -4.426,15.923c-0.748,1.322 -1.955,2.472 -3.162,3.449c-2.012,1.609 -2.817,3.736 -3.449,6.093c-0.69,2.587 -1.322,5.174 -2.242,7.646c-0.92,2.414 -3.162,3.909 -6.381,2.644c-2.874,-1.15 -5.461,-2.702 -7.3,-5.346c-1.897,-2.759 -2.415,-5.806 -2.127,-9.083c0.46,-5.001 0.977,-10.002 -0.288,-14.888c-0.632,-2.529 -2.472,-4.426 -4.656,-5.864c-1.897,-1.264 -3.851,-2.529 -5.806,-3.736c-0.92,-0.575 -1.38,-1.265 -0.517,-2.242c0.287,-0.345 0.402,-0.805 0.747,-1.092c1.955,-1.437 2.184,-3.162 1.092,-5.289c-1.264,-2.414 -2.299,-5.001 -4.714,-6.496c-2.701,-1.667 -5.69,-1.379 -8.622,-0.977c-2.53,0.403 -4.944,0 -7.128,-1.149c-1.955,-1.093 -2.415,-3.277 -2.587,-5.404c-0.115,-1.725 0.115,-3.449 -0.115,-5.174c-0.517,-3.909 0.805,-7.243 2.587,-10.519c0.862,-1.552 1.724,-3.047 2.472,-4.657c0.344,-0.804 0.574,-1.897 0.344,-2.701c-0.114,-0.46 -1.149,-1.035 -1.782,-1.035c-1.839,0 -3.679,0.345 -5.576,0.517c-3.506,0.23 -6.438,-1.207 -9.197,-3.104c-1.437,-0.977 -1.552,-3.334 0.402,-4.311c2.702,-1.322 5.174,-3.104 7.588,-4.886c2.587,-1.955 5.231,-1.955 8.221,-1.265c2.874,0.69 5.058,2.529 7.473,3.966c3.794,2.185 7.76,1.897 11.094,-0.517c3.507,-2.529 7.128,-2.012 10.922,-1.954c0.23,0 0.518,0.172 0.633,0.344c0.977,1.38 2.011,2.702 3.679,3.335c0.057,0 -0.115,0.919 -0.345,1.207c-0.863,0.919 -1.093,1.897 -0.403,2.931c0.92,1.438 1.782,1.208 3.392,0.978c2.299,-0.345 4.714,-0.173 7.07,-0.058c0.69,0.058 1.38,0.518 2.012,0.862c3.22,1.782 4.024,3.507 2.932,6.899c-0.46,1.437 -1.265,2.874 -2.127,4.138c-1.322,2.127 -3.276,3.22 -5.863,3.047c-4.886,-0.345 -8.565,1.897 -11.497,5.461c-0.805,0.977 -1.495,2.127 -2.185,3.277c-1.264,2.184 -3.161,3.276 -5.633,3.506c-2.702,0.288 -5.749,0.518 -8.91,0.748Z" style="fill:#cce4c4;fill-rule:nonzero;"/></g><g><path d="M108.991,46.39c0.977,-1.322 1.724,-2.702 2.817,-3.794c3.506,-3.449 7.875,-4.484 12.531,-3.621c3.852,0.689 7.186,2.701 10.232,5.231c0.863,0.689 0.575,1.322 0.23,2.069c-1.207,2.357 -3.449,3.564 -5.633,4.714c-2.702,1.494 -5.461,2.932 -8.393,4.024c-2.242,0.805 -4.714,0.92 -7.07,0.172c-1.323,-0.402 -1.208,-1.897 -1.667,-2.931c-0.633,-1.38 -1.265,-2.702 -1.955,-4.024c-0.287,-0.575 -0.575,-1.035 -1.092,-1.84Z" style="fill:#cce4c4;fill-rule:nonzero;"/></g></g></g></g></g><g><path d="M164.463,147.678l8.566,6.036l7.07,-10.117l-7.875,-5.519c-2.299,3.392 -4.944,6.553 -7.761,9.6Z" style="fill:#cce4c4;fill-rule:nonzero;"/><path d="M186.02,93.815c0,-43.171 -35.123,-78.237 -78.236,-78.237c-13.969,0 -27.076,3.737 -38.4,10.175l3.621,8.393c10.233,-5.979 22.075,-9.485 34.779,-9.485c38.112,0 69.154,31.042 69.154,69.154c0,38.112 -31.042,69.154 -69.154,69.154c-38.113,0 -69.154,-31.042 -69.154,-69.154c0,-11.037 2.644,-21.384 7.243,-30.639l-8.623,-2.99c-4.886,10.233 -7.703,21.615 -7.703,33.629c0,43.171 35.123,78.236 78.237,78.236c22.304,0 42.423,-9.427 56.679,-24.43c2.817,-2.99 5.462,-6.151 7.818,-9.6c8.623,-12.532 13.739,-27.765 13.739,-44.206Z" style="fill:#b3b3b3;fill-rule:nonzero;"/></g><g><g opacity="0.3"><path d="M78.811,58.807c-1.207,-1.322 -4.541,-0.23 -7.473,2.414c-2.931,2.644 -4.311,5.864 -3.161,7.186c1.207,1.322 4.541,0.23 7.473,-2.415c2.931,-2.644 4.369,-5.863 3.161,-7.185Z" style="fill:#1e4c4c;fill-rule:nonzero;"/></g><g><g><path d="M71.511,62.773c0,0 -26.845,-4.369 -33.111,-11.324c-6.266,-6.898 -5.749,-17.591 1.149,-23.914c6.899,-6.266 17.591,-5.748 23.914,1.15c6.266,6.955 8.048,34.088 8.048,34.088Zm-15.866,-28.742c-2.702,-2.989 -7.358,-3.219 -10.405,-0.517c-2.989,2.701 -3.219,7.358 -0.517,10.404c2.702,2.989 7.358,3.219 10.405,0.518c3.046,-2.76 3.276,-7.416 0.517,-10.405Z" style="fill:#fcc020;fill-rule:nonzero;"/></g></g></g><path d="M171.362,156.071l41.044,28.8l1.552,-1.495c3.449,-3.392 6.208,-7.416 8.22,-11.842l0.747,-1.609l-41.044,-28.8l-10.519,14.946Z" style="fill:#1a7c7b;fill-rule:nonzero;"/><path d="M168.372,94.735c0,-33.859 -27.42,-61.279 -61.278,-61.279l0,120.833c33.858,-0.058 61.278,-25.753 61.278,-59.554Z" style="fill:#1e4c4c;fill-opacity:0.2;fill-rule:nonzero;"/><path d="M201.081,46.333c0,-0.748 -0.632,-1.38 -1.379,-1.38c-0.748,0 -1.38,0.632 -1.38,1.38c0,0.747 0.632,1.379 1.38,1.379c0.804,-0.057 1.379,-0.632 1.379,-1.379Z" style="fill:#fff;fill-rule:nonzero;"/><path d="M95.252,0.92c0,-0.518 -0.402,-0.92 -0.92,-0.92c-0.517,0 -0.919,0.402 -0.919,0.92c0,0.517 0.402,0.92 0.919,0.92c0.518,0 0.92,-0.403 0.92,-0.92Z" style="fill:#fff;fill-rule:nonzero;"/><path d="M2.529,61.968c0,-0.689 -0.575,-1.264 -1.264,-1.264c-0.69,0 -1.265,0.575 -1.265,1.264c0,0.69 0.575,1.265 1.265,1.265c0.689,0 1.264,-0.575 1.264,-1.265Z" style="fill:#fff;fill-rule:nonzero;"/><path d="M12.647,90.538c0,-0.575 -0.46,-1.034 -1.035,-1.034c-0.575,0 -1.035,0.459 -1.035,1.034c0,0.575 0.46,1.035 1.035,1.035c0.517,0 1.035,-0.46 1.035,-1.035Z" style="fill:#fff;fill-rule:nonzero;"/><path d="M42.884,160.842c0,-0.575 -0.46,-1.035 -1.035,-1.035c-0.575,0 -1.035,0.46 -1.035,1.035c0,0.575 0.46,1.035 1.035,1.035c0.575,0 1.035,-0.46 1.035,-1.035Z" style="fill:#fff;fill-rule:nonzero;"/><path d="M206.255,101.345c0,-0.574 -0.46,-1.034 -1.035,-1.034c-0.575,0 -1.035,0.46 -1.035,1.034c0,0.575 0.46,1.035 1.035,1.035c0.575,0 1.035,-0.46 1.035,-1.035Z" style="fill:#fff;fill-rule:nonzero;"/></g></svg>