<?xml version="1.0" encoding="UTF-8" standalone="no"?><!DOCTYPE svg PUBLIC "-//W3C//DTD SVG 1.1//EN" "http://www.w3.org/Graphics/SVG/1.1/DTD/svg11.dtd"><svg width="100%" height="100%" viewBox="0 0 186 138" version="1.1" xmlns="http://www.w3.org/2000/svg" xmlns:xlink="http://www.w3.org/1999/xlink" xml:space="preserve" xmlns:serif="http://www.serif.com/" style="fill-rule:evenodd;clip-rule:evenodd;stroke-linejoin:round;stroke-miterlimit:2;"><clipPath id="_clip1"><rect x="0" y="0" width="185.26" height="138"/></clipPath><g clip-path="url(#_clip1)"><g><path d="M61.255,5l0,2c-12.621,1.63 -27.061,4.702 -38,11.468c-11.507,7.117 -9.491,16.063 2,21.532c-2.536,-13.835 24.476,-21.273 35,-19c-7.857,4.938 -37.82,12.626 -16.002,23.622c2.255,1.136 4.563,1.799 7.002,2.378c-8.224,-11.623 13.093,-14.979 21,-16c-3.405,4.23 -14.293,3.502 -15.218,10.039c-0.899,6.362 10.871,8.883 15.218,9.7c13.066,2.456 29.031,2.512 42,-0.639c4.612,-1.12 17.006,-5.137 13.914,-12.007c-1.417,-3.148 -5.41,-4.908 -7.914,-7.093c8.344,-1.235 18.634,4.719 16,14c2.109,-0.922 4.089,-1.861 5.965,-3.224c18.71,-13.599 -11.957,-18.598 -16.964,-25.776c12.942,1.671 34.612,5.948 35,22c2.148,-1.918 4.48,-3.754 6.197,-6.091c11.205,-15.249 -17.872,-25 -28.198,-27.754c-3.668,-0.979 -7.613,-1.017 -10,-4.155c15.234,1.204 32.713,5.133 46,12.876c6.288,3.664 13.329,10.052 10.258,18.124c-2.761,7.258 -11.5,11.546 -18.258,14.188c-16.822,6.576 -35.987,9.983 -54,10.772c-27.306,1.195 -55.591,0.327 -82,-7.252c-9.018,-2.588 -20.099,-4.79 -26.867,-11.814c-7.645,-7.935 -1.043,-15.47 6.867,-19.632c14.806,-7.79 34.358,-11.548 51,-12.263l0,0.001Z" style="fill:#737373;fill-rule:nonzero;"/><path d="M70.255,42c5.369,-1.972 10.353,-2.607 16,-3.169c4.232,-0.422 7.768,-0.422 12,0l7,0.608c2.174,0.344 11.196,1.82 8.11,5.852c-1.91,2.495 -7.256,2.824 -10.11,3.27c-8.178,1.277 -29.896,3.296 -33,-6.561l0,0Z" style="fill:#737373;fill-rule:nonzero;"/><path d="M178,40.912c-2.266,12.892 -16.724,17.374 -28,19.789c-28.313,6.064 -55.648,3.872 -84,0.211c9.261,-3.886 22.146,0.392 32,-0.04c28.576,-1.251 56.046,-3.301 80,-19.961l0,0.001Z" style="fill:#737373;fill-rule:nonzero;"/><path d="M173.26,59c-4.282,14.376 -22.656,14.799 -35,16.424c-28.049,3.694 -59.458,-2.149 -86,-11.092c-10.476,-3.53 -24.579,-8.821 -28,-20.333c8.264,3.475 15.481,9.102 24,12.316c38.216,14.414 87.34,20.268 125,2.684l0,0.001Z" style="fill:#737373;fill-rule:nonzero;"/><path d="M164.26,74c-1.571,15.199 -22.54,14 -34,14c-28.863,0 -74.668,-1.978 -93,-28c9.518,1.835 18.642,8.528 28,11.645c29.503,9.827 70.551,17.958 99,2.355l0,0Z" style="fill:#737373;fill-rule:nonzero;"/><path d="M151.26,82l-1,1l1,-1Z" style="fill:#737373;fill-rule:nonzero;"/><path d="M137.26,93c-15.874,14.723 -56.256,7.877 -70,-7c10.157,-0.596 22.636,5.794 33,7.41c12.308,1.918 24.702,-0.376 37,-0.41Z" style="fill:#737373;fill-rule:nonzero;"/><path d="M71.255,95c17.21,9.794 35.09,9.013 54,9c-9.739,10.34 -32.788,9.522 -44,2.3c-3.866,-2.49 -10.106,-6.298 -10,-11.3Z" style="fill:#737373;fill-rule:nonzero;"/><path d="M72.255,107c14.246,8.313 23.916,5.653 39,7c-7.168,8.588 -21.832,9.218 -31,3.441c-3.613,-2.277 -8.943,-5.743 -8,-10.441Z" style="fill:#737373;fill-rule:nonzero;"/><path d="M94.255,124c-3.297,5.44 -9.484,7.225 -10,14c-6.075,-3.65 -12.816,-10.162 -15,-17c9.422,2.713 15.111,3.78 25,3Z" style="fill:#737373;fill-rule:nonzero;"/></g></g></svg>